<?xml version="1.0" standalone="no"?>
<!DOCTYPE svg PUBLIC "-//W3C//DTD SVG 20010904//EN"
 "http://www.w3.org/TR/2001/REC-SVG-20010904/DTD/svg10.dtd">
<svg version="1.0" xmlns="http://www.w3.org/2000/svg"
 width="4500.000000pt" height="4500.000000pt" viewBox="0 0 4500.000000 4500.000000"
 preserveAspectRatio="xMidYMid meet">
<metadata>
Created by potrace 1.16, written by Peter Selinger 2001-2019
</metadata>
<g transform="translate(0.000000,4500.000000) scale(0.100000,-0.100000)"
fill="#000000" stroke="none">
<path d="M24095 35537 c-2262 -1304 -4928 -2841 -8200 -4726 -1629 -939 -2794
-1617 -2815 -1637 l-35 -34 0 -8418 0 -8417 22 -31 c29 -41 1754 -1028 1834
-1049 123 -33 255 -12 372 58 40 24 102 61 140 81 l67 38 0 924 c0 508 3 924
6 924 3 0 240 -136 527 -302 287 -166 563 -325 612 -353 50 -29 468 -270 930
-537 462 -267 2008 -1159 3435 -1983 1427 -823 2608 -1509 2623 -1524 66 -61
62 18 65 -1103 1 -560 0 -1018 -3 -1018 -3 0 -198 111 -433 247 -235 135 -526
303 -647 373 -121 70 -440 254 -710 410 -269 156 -751 434 -1070 618 -319 184
-636 367 -705 407 -351 203 -686 397 -970 560 -173 100 -490 283 -705 407
-621 359 -1195 690 -1539 889 -176 101 -565 326 -865 499 l-546 316 -3 72 c-2
40 -5 72 -7 72 -3 0 -62 -32 -130 -71 l-126 -72 3 -81 3 -81 4198 -2424 c3384
-1953 4207 -2425 4242 -2429 27 -3 53 1 72 10 15 9 1286 742 2823 1630 1537
888 4302 2484 6144 3548 3272 1890 3349 1935 3367 1975 18 38 19 93 19 1111 0
1041 -1 1074 -20 1136 -24 80 -83 172 -141 222 -37 32 -6618 3841 -6624 3833
-2 -1 165 -1023 371 -2272 205 -1248 376 -2292 379 -2320 l6 -50 -3167 -1828
c-1741 -1005 -3168 -1826 -3170 -1824 -3 3 -428 2582 -1195 7252 -33 204 -82
503 -109 665 -121 736 -300 1824 -404 2460 -149 908 -469 2855 -546 3325 -34
204 -97 588 -141 855 -44 267 -109 665 -144 885 -36 220 -68 410 -70 423 -5
22 -5 22 -76 -14 -172 -86 -393 -134 -634 -137 -114 -1 -169 3 -229 17 -102
23 -921 298 -984 330 -118 60 -162 159 -113 255 54 104 -60 36 3337 1995 1754
1012 3192 1841 3196 1843 4 2 65 -15 136 -38 l130 -42 37 -231 c20 -127 42
-257 47 -288 l10 -57 306 -102 c169 -56 312 -104 317 -106 6 -2 143 73 305
167 162 93 300 170 307 170 11 0 13 375 13 1993 l0 1992 -62 35 c-35 19 -66
37 -70 38 -5 2 -70 -32 -146 -76 -75 -44 -711 -410 -1412 -814 -701 -404
-3329 -1920 -5840 -3368 -2511 -1449 -4586 -2643 -4613 -2654 -39 -17 -54 -18
-85 -10 -31 9 -1622 911 -1644 933 -8 7 775 460 6222 3599 1779 1026 3756
2165 4392 2532 l1157 667 58 -33 c32 -18 61 -34 66 -34 4 0 7 69 7 154 l0 155
-59 35 c-32 20 -65 36 -72 36 -8 -1 -468 -263 -1024 -583z"/>
<path d="M9980 23077 l0 -9103 28 -32 c15 -17 108 -78 207 -135 466 -269 1275
-736 1705 -985 261 -152 500 -286 530 -298 100 -41 258 -40 343 3 l27 14 0
9105 0 9105 -27 -15 c-79 -40 -245 -45 -335 -9 -36 14 -416 231 -1043 595 -71
42 -146 85 -165 96 -19 11 -224 129 -455 263 -231 133 -494 285 -585 336 -91
52 -180 110 -197 129 l-33 34 0 -9103z"/>
</g>
</svg>
